<svg xmlns="http://www.w3.org/2000/svg" viewBox="0 0 380 100" role="img" aria-label="A1 Kitchen - Food, Catering, Events">
  <title>A1 Kitchen - Food, Catering, Events</title>
  <g transform="scale(0.8333)">
    <circle cx="60" cy="60" r="58" fill="#0a4a8c"/>
    <circle cx="60" cy="60" r="54" fill="none" stroke="#ffffff" stroke-width="2"/>
    <polygon points="16.2,88 31,66 42,77 60,52 78,77 90,67 103.8,88 104.1,87.6 98.6,94.8 92.0,101.0 84.4,105.9 76.1,109.5 67.2,111.5 58.2,112.0 49.2,110.9 40.5,108.2 32.4,104.1 25.2,98.6 19.0,92.0" fill="#2f86d6"/>
    <circle cx="90" cy="26" r="4.5" fill="#f2a900"/>
    <polygon points="54,54 66,54 66,74 69,82 76,90 84,94 36,94 44,90 51,82 54,74" fill="#7a4b2a"/>
    <g fill="#2db84d"><circle cx="36" cy="44" r="12"/><circle cx="48" cy="35" r="13"/><circle cx="60" cy="31" r="14"/><circle cx="72" cy="35" r="13"/><circle cx="84" cy="44" r="12"/><rect x="30" y="44" width="60" height="12" rx="6"/></g>
  </g>
  <text x="116" y="56" font-family="Arial, Helvetica, sans-serif" font-weight="900" font-size="36" letter-spacing="2"><tspan fill="#3ecf63">A1</tspan><tspan fill="#ffffff"> KITCHEN</tspan></text>
  <rect x="118" y="64" width="56" height="3" rx="1.5" fill="#f2a900"/>
  <text x="118" y="86" font-family="Arial, Helvetica, sans-serif" font-weight="700" font-size="11.5" letter-spacing="2.5" fill="#9fd0f7">FOOD • CATERING • EVENTS</text>
</svg>